<svg xmlns="http://www.w3.org/2000/svg" width="33" height="24" viewBox="0 0 33 24" fill="currentColor" role="img"><title>DI</title><path d="m24,3h-15.01c-3.3,0-6,2.7-6,6v6c0,3.3,2.7,6,6,6h15.01c3.3,0,6-2.7,6-6v-6c0-3.3-2.7-6-6-6Zm-5.54,10.71c0,.8-.17,1.51-.5,2.12-.34.62-.84,1.09-1.5,1.43-.67.34-1.49.52-2.49.52h-3.75V6.42h3.76c1.43,0,2.53.35,3.31,1.06.78.71,1.17,1.71,1.17,3.01v3.22Zm4.17,4.07h-2.22V6.42h2.22v11.36Z"></path><path d="m16.24,10.42v3.35c0,.61-.2,1.09-.58,1.43-.39.34-.93.51-1.63.51h-1.67v-7.23h1.67c.7,0,1.24.17,1.63.51.38.34.58.81.58,1.43Z"></path></svg>
