<svg xmlns="http://www.w3.org/2000/svg" width="36" height="24" viewBox="0 0 36 24" fill="currentColor" role="img"><title>3x K</title><path d="m14,12c0-2.73,1.09-5.2,2.86-7H6.33c-1.83,0-3.33,1.5-3.33,3.33v7.35c0,1.83,1.5,3.33,3.33,3.33h10.54c-1.77-1.8-2.87-4.28-2.87-7.01Zm-2.63,2.11c0,.8-.23,1.43-.71,1.88-.47.44-1.14.66-2,.66-.55,0-1.05-.1-1.48-.3-.44-.21-.78-.5-1.04-.89-.26-.38-.41-.85-.43-1.39h1.79c.04.28.15.5.32.66.17.15.39.23.65.23.33,0,.59-.09.77-.27.18-.19.27-.45.27-.78v-.22c0-.35-.08-.62-.22-.81-.15-.19-.36-.28-.63-.28h-.78v-1.68h.78c.22,0,.39-.08.51-.25.12-.17.18-.4.18-.7v-.16c0-.29-.06-.5-.19-.66-.14-.15-.33-.23-.57-.23s-.44.09-.6.27c-.17.17-.28.43-.34.75h-1.79c.07-.86.37-1.52.89-2,.52-.47,1.16-.71,1.91-.71.81,0,1.44.21,1.89.63.45.41.67,1,.67,1.77v.28c0,.43-.11.8-.32,1.12-.22.31-.52.55-.92.71.44.1.79.33,1.03.7.24.36.36.82.36,1.39v.28Z"></path><path d="m24,3c-4.96,0-9,4.04-9,9s4.04,9,9,9,9-4.04,9-9S28.96,3,24,3Zm2.59,14.78l-2.7-4.73-1.63,2.26v2.47h-2.14V6.42h2.14v5.63l3.7-5.63h2.7l-3.38,4.69,3.85,6.67h-2.54Z"></path></svg>
