<svg xmlns="http://www.w3.org/2000/svg" width="36" height="24" viewBox="0 0 36 24" fill="currentColor" role="img">
  <title>2x K</title>
  <path d="m14,12c0-2.73,1.09-5.2,2.86-7H6.33c-1.83,0-3.33,1.5-3.33,3.33v7.35c0,1.83,1.5,3.33,3.33,3.33h10.54c-1.77-1.8-2.87-4.28-2.87-7.01Zm-2.52,4.66h-5.45v-1.57l3.16-4.17c.15-.18.26-.37.34-.57.07-.2.11-.38.11-.55h0c0-.26-.08-.46-.24-.59-.16-.14-.39-.2-.68-.2s-.52.09-.7.28-.29.45-.33.8h0s-1.78.01-1.78.01h0c.06-.88.34-1.56.84-2.05.5-.48,1.15-.72,1.95-.72.87,0,1.54.21,2.02.63.48.42.71,1.01.71,1.78,0,.42-.07.84-.22,1.25-.14.41-.35.79-.61,1.12l-2.27,2.87h3.15v1.68Z"></path>
  <path d="m24,3c-4.96,0-9,4.04-9,9s4.04,9,9,9,9-4.04,9-9S28.96,3,24,3Zm2.59,14.78l-2.7-4.73-1.63,2.26v2.47h-2.14V6.42h2.14v5.63l3.7-5.63h2.7l-3.38,4.69,3.85,6.67h-2.54Z"></path>
</svg>
